<?xml version="1.0" encoding="UTF-8"?>
<svg id="Layer_1" data-name="Layer 1" xmlns="http://www.w3.org/2000/svg" viewBox="0 0 1700.79 447.99">
  <defs>
    <style>
      .cls-1 {
        fill: #787878;
      }

      .cls-1, .cls-2 {
        stroke-width: 0px;
      }

      .cls-2 {
        fill: #282828;
      }
    </style>
  </defs>
  <g>
    <path class="cls-1" d="m1271.93,181.5h228.41c16.95,0,25.44,20.49,13.45,32.48l-228.41,228.4c-11.99,11.99-32.48,3.5-32.48-13.45v-228.4c0-10.51,8.52-19.03,19.03-19.03Z"/>
    <path class="cls-1" d="m1695.18,32.59l-76.15,76.15c-3.57,3.57-8.41,5.57-13.45,5.57h-333.64c-10.51,0-19.03-8.52-19.03-19.03V19.14c0-10.51,8.52-19.03,19.03-19.03h409.79c16.95,0,25.44,20.49,13.45,32.48Z"/>
  </g>
  <g>
    <path class="cls-2" d="m508.76,44.79C484.9,20.53,445.93.03,392.79.03s-92.12,20.51-116.02,44.77c-21.77,22.23-38.93,56.54-38.93,100.94s17.16,79.12,38.93,101.31c23.9,24.31,62.83,44.81,116.02,44.81s92.12-20.51,115.97-44.81c21.77-22.18,38.93-56.54,38.93-101.31s-17.16-78.72-38.93-100.94Zm-79.58,142.81c-8.37,8.37-20.91,14.21-36.39,14.21s-28.06-5.84-36.44-14.21c-10.05-10.05-15.93-25.58-15.93-41.46s5.88-31.41,15.93-41.87c6.7-7.11,18.42-14.26,36.44-14.26,16.7,0,28.88,6.7,36.39,14.26,10.05,9.64,15.93,24.26,15.93,41.87s-6.7,32.23-15.93,41.46Z"/>
    <path class="cls-2" d="m765.6,7.89v153.1c0,14.81-11.49,26.82-25.66,26.82h-36.72c-4.11,0-7.44,3.48-7.44,7.78v88.59c0,4.29,3.33,7.78,7.44,7.78h62.38c55.05,0,99.67-46.63,99.67-104.14V7.89c0-4.29-3.33-7.78-7.44-7.78h-84.78c-4.11,0-7.44,3.48-7.44,7.78Z"/>
    <path class="cls-2" d="m663.5,284.17v-153.1c0-14.81,11.49-26.82,25.66-26.82h36.72c4.11,0,7.44-3.48,7.44-7.78V7.89c0-4.29-3.33-7.78-7.44-7.78h-62.38c-55.05,0-99.67,46.63-99.67,104.14v179.91c0,4.29,3.33,7.78,7.44,7.78h84.78c4.11,0,7.44-3.48,7.44-7.78Z"/>
    <path class="cls-2" d="m1180.88.01h-84.78c-3.94,0-7.15,3.21-7.38,7.38C1073.19,2.73,1055.72.01,1036.35.01c-53.19,0-92.12,20.51-116.02,44.77-21.77,22.23-38.93,56.54-38.93,100.94s17.16,79.12,38.93,101.31c23.9,24.31,62.83,44.81,116.02,44.81,19.33,0,36.8-2.72,52.33-7.38.05,4.12,3.3,7.38,7.42,7.38h84.78c4.12,0,7.47-3.3,7.47-7.42V7.89c0-4.39-3.35-7.88-7.47-7.88Zm-108.14,187.58c-8.37,8.37-20.91,14.21-36.39,14.21s-28.06-5.84-36.44-14.21c-10.05-10.05-15.93-25.58-15.93-41.46s5.88-31.41,15.93-41.87c6.7-7.11,18.42-14.26,36.44-14.26,16.7,0,28.88,6.7,36.39,14.26,10.05,9.64,15.93,24.26,15.93,41.87s-6.7,32.23-15.93,41.46Z"/>
    <g>
      <path class="cls-1" d="m228.5,370.7c-.8.42-1.76.07-2.18-.73-2.52-4.78-7.03-8.2-12.7-8.2-6.01,0-11.56,3.47-11.56,10.86,0,6.93,4.62,9.01,15.49,13.64,13.87,5.78,20.34,10.17,24.04,14.79,4.16,5.09,5.09,10.17,5.09,15.49,0,20.1-14.56,31.43-33.05,31.43-3.85,0-24.54-.44-32.99-23.03-.3-.8.1-1.73.89-2.06l11.41-4.79c.8-.33,1.73.01,2.07.81,2.29,5.41,7.87,14.27,18.85,14.27s15.72-8.09,15.72-15.25c0-9.01-6.47-12.02-15.49-15.95-11.56-5.08-18.95-8.79-23.35-14.1-3.7-4.62-4.39-9.25-4.39-14.1,0-16.87,11.79-26.81,27.97-26.81,4.93,0,17.91.86,25.64,15.89.4.78.08,1.77-.69,2.17l-10.77,5.66Z"/>
      <path class="cls-1" d="m956.48,327.54c-6.47,0-11.79-5.32-11.79-11.79s5.31-11.79,11.79-11.79,11.79,5.32,11.79,11.79-5.31,11.79-11.79,11.79Zm-8.32,118.84v-92.73c0-.88.71-1.6,1.6-1.6h13.45c.88,0,1.6.71,1.6,1.6v92.73c0,.88-.71,1.6-1.6,1.6h-13.45c-.88,0-1.6-.71-1.6-1.6Z"/>
      <path class="cls-1" d="m1086.32,397.59c0-29.12,21.49-50.62,50.85-50.62s50.85,21.5,50.85,50.62-21.73,50.39-50.85,50.39-50.85-21.26-50.85-50.39Zm17.1,0c0,23.58,16.64,35.59,33.74,35.59s33.75-12.25,33.75-35.59-16.18-35.82-33.75-35.82-33.74,12.48-33.74,35.82Z"/>
      <path class="cls-1" d="m825.05,303.97h-13.43c-.89,0-1.61.72-1.61,1.61v47.15c0,1.27-1.37,2.01-2.47,1.36-7.71-4.56-16.9-7.11-27.03-7.11-.54,0-1.12,0-1.65.04-.54-.04-1.12-.04-1.69-.04-18.51,0-35.65,9.75-42.97,28.75-2.93,6.53-4.54,13.92-4.54,21.86,0,8.88,2.02,17.06,5.7,24.09.04.16.12.33.25.5,7.97,17.15,24.29,25.82,41.56,25.82.45,0,.91,0,1.32-.04.66.04,1.36.04,2.02.04,10.1,0,19.32-2.55,27.03-7.11,1.09-.65,2.47.09,2.47,1.36v4.14c0,.89.73,1.61,1.61,1.61h13.43c.89,0,1.61-.73,1.61-1.61v-140.79c0-.89-.73-1.61-1.61-1.61Zm-68.99,119.11c-.08-.08-.17-.17-.25-.29-5.37-6.45-8.22-15.41-8.22-25.66s2.89-18.26,7.52-24.09c.25-.33.5-.62.78-.95,6.2-6.65,14.83-10.16,23.92-10.29,14.58.33,31.11,11.24,31.11,35.57,0,18.63-11.2,35.28-30.94,35.78-8.92-.08-17.64-3.47-23.92-10.08Z"/>
      <path class="cls-1" d="m416.52,346.99h-13.45c-.88,0-1.6-.71-1.6-1.6v-28.04c0-.88-.71-1.6-1.6-1.6h-13.45c-.88,0-1.6.71-1.6,1.6v28.04c0,.88-.71,1.6-1.6,1.6h-13.45c-.88,0-1.6.71-1.6,1.6v12.06c0,.88.71,1.6,1.6,1.6h13.45c.88,0,1.6.71,1.6,1.6v82.55c0,.88.71,1.6,1.6,1.6h13.45c.88,0,1.6-.71,1.6-1.6v-82.55c0-.88.71-1.6,1.6-1.6h13.45c.88,0,1.6-.71,1.6-1.6v-12.06c0-.88-.71-1.6-1.6-1.6Z"/>
      <path class="cls-1" d="m610.84,349.29h-13.43c-.89,0-1.61.72-1.61,1.61v47.73c0,3.37-.26,6.77-1.17,10.01-4.25,15.15-17.22,22.98-30.81,22.98s-26.66-7.8-30.88-23.17c-.9-3.27-1.14-6.68-1.14-10.07v-47.48c0-.91-.7-1.61-1.57-1.61h-13.47c-.87,0-1.57.7-1.57,1.57v45.11c0,27.45,22.23,50.33,49.68,49.82,27.32-.51,47.58-20.71,47.58-48.2v-46.69c0-.89-.72-1.61-1.61-1.61Z"/>
    </g>
    <path class="cls-2" d="m99.67,0h124.24c3.23,0,5.86,2.62,5.86,5.86v92.54c0,3.23-2.62,5.86-5.86,5.86h-92.31c-14.17,0-25.66,11.49-25.66,25.66v66.05c0,3.23,2.62,5.86,5.86,5.86h99.41c3.23,0,5.86,2.62,5.86,5.86v78.3c0,3.23-2.62,5.86-5.86,5.86h-99.41c-3.23,0-5.86,2.62-5.86,5.86v144.44c0,3.23-2.62,5.86-5.86,5.86H5.86c-3.23,0-5.86-2.62-5.86-5.86V99.67C0,44.63,44.63,0,99.67,0Z"/>
  </g>
</svg>