<?xml version="1.0" encoding="UTF-8"?>
<svg id="Layer_1" data-name="Layer 1" xmlns="http://www.w3.org/2000/svg" viewBox="0 0 1133.86 427.44">
  <defs>
    <style>
      .cls-1 {
        fill: #fff;
        stroke-width: 0px;
      }
    </style>
  </defs>
  <path class="cls-1" d="m485.43,42.74C462.67,19.59,425.48.02,374.78.02s-87.89,19.57-110.7,42.72c-20.77,21.21-37.14,53.94-37.14,96.31s16.37,75.5,37.14,96.66c22.8,23.19,59.95,42.76,110.7,42.76s87.89-19.57,110.65-42.76c20.77-21.16,37.14-53.94,37.14-96.66s-16.37-75.11-37.14-96.31Zm-75.93,136.27c-7.99,7.99-19.95,13.56-34.72,13.56s-26.78-5.57-34.77-13.56c-9.59-9.59-15.2-24.4-15.2-39.56s5.61-29.97,15.2-39.95c6.39-6.78,17.58-13.6,34.77-13.6,15.94,0,27.56,6.39,34.72,13.6,9.59,9.2,15.2,23.15,15.2,39.95s-6.39,30.75-15.2,39.56Z"/>
  <path class="cls-1" d="m730.49,7.53v146.08c0,14.13-10.96,25.59-24.49,25.59h-35.03c-3.92,0-7.1,3.32-7.1,7.42v84.53c0,4.1,3.18,7.42,7.1,7.42h59.52c52.52,0,95.1-44.49,95.1-99.37V7.53c0-4.1-3.18-7.42-7.1-7.42h-80.9c-3.92,0-7.1,3.32-7.1,7.42Z"/>
  <path class="cls-1" d="m633.07,271.14V125.06c0-14.13,10.96-25.59,24.49-25.59h35.03c3.92,0,7.1-3.32,7.1-7.42V7.53c0-4.1-3.18-7.42-7.1-7.42h-59.52c-52.52,0-95.1,44.49-95.1,99.37v171.66c0,4.1,3.18,7.42,7.1,7.42h80.9c3.92,0,7.1-3.32,7.1-7.42Z"/>
  <path class="cls-1" d="m1126.73.01h-80.9c-3.76,0-6.82,3.07-7.04,7.04C1023.98,2.6,1007.31.01,988.83.01c-50.75,0-87.89,19.57-110.7,42.72-20.77,21.21-37.14,53.94-37.14,96.31s16.37,75.5,37.14,96.66c22.8,23.19,59.95,42.76,110.7,42.76,18.44,0,35.11-2.59,49.93-7.04.04,3.93,3.15,7.04,7.08,7.04h80.9c3.93,0,7.13-3.15,7.13-7.08V7.53c0-4.19-3.2-7.52-7.13-7.52Zm-103.18,178.98c-7.99,7.99-19.95,13.56-34.72,13.56s-26.78-5.57-34.77-13.56c-9.59-9.59-15.2-24.4-15.2-39.56s5.61-29.97,15.2-39.95c6.39-6.78,17.58-13.61,34.77-13.61,15.94,0,27.56,6.39,34.72,13.61,9.59,9.2,15.2,23.15,15.2,39.95s-6.39,30.75-15.2,39.56Z"/>
  <g>
    <path class="cls-1" d="m218.02,353.7c-.77.4-1.68.07-2.08-.7-2.4-4.56-6.71-7.82-12.11-7.82-5.74,0-11.03,3.31-11.03,10.36,0,6.62,4.41,8.6,14.78,13.01,13.23,5.51,19.41,9.7,22.94,14.11,3.97,4.86,4.85,9.7,4.85,14.78,0,19.18-13.9,29.99-31.54,29.99-3.67,0-23.42-.42-31.48-21.97-.29-.77.1-1.65.85-1.97l10.89-4.57c.76-.32,1.65.01,1.97.77,2.19,5.16,7.51,13.62,17.98,13.62s15-7.72,15-14.55c0-8.6-6.18-11.47-14.78-15.22-11.03-4.85-18.08-8.38-22.27-13.45-3.53-4.41-4.19-8.83-4.19-13.46,0-16.1,11.25-25.58,26.68-25.58,4.71,0,17.09.83,24.47,15.17.38.74.08,1.69-.66,2.07l-10.28,5.4Z"/>
    <path class="cls-1" d="m912.62,312.52c-6.18,0-11.25-5.07-11.25-11.25s5.07-11.25,11.25-11.25,11.25,5.07,11.25,11.25-5.07,11.25-11.25,11.25Zm-7.94,113.39v-88.48c0-.84.68-1.52,1.52-1.52h12.83c.84,0,1.52.68,1.52,1.52v88.48c0,.84-.68,1.52-1.52,1.52h-12.83c-.84,0-1.52-.68-1.52-1.52Z"/>
    <path class="cls-1" d="m1036.5,379.36c0-27.78,20.5-48.3,48.51-48.3s48.52,20.51,48.52,48.3-20.73,48.08-48.52,48.08-48.51-20.29-48.51-48.08Zm16.32,0c0,22.5,15.88,33.96,32.19,33.96s32.2-11.68,32.2-33.96-15.44-34.18-32.2-34.18-32.19,11.91-32.19,34.18Z"/>
    <path class="cls-1" d="m787.22,290.03h-12.81c-.85,0-1.54.69-1.54,1.54v44.99c0,1.21-1.31,1.91-2.36,1.3-7.35-4.35-16.12-6.79-25.79-6.79-.51,0-1.06,0-1.58.04-.51-.04-1.06-.04-1.62-.04-17.66,0-34.02,9.3-41,27.44-2.8,6.23-4.34,13.28-4.34,20.85,0,8.48,1.93,16.28,5.44,22.98.04.16.12.32.24.47,7.61,16.36,23.18,24.64,39.66,24.64.43,0,.87,0,1.26-.04.63.04,1.3.04,1.93.04,9.63,0,18.43-2.44,25.79-6.79,1.04-.62,2.35.08,2.35,1.3v3.95c0,.85.69,1.54,1.54,1.54h12.81c.85,0,1.54-.69,1.54-1.54v-134.34c0-.85-.69-1.54-1.54-1.54Zm-65.83,113.65c-.08-.08-.16-.16-.24-.28-5.12-6.15-7.84-14.7-7.84-24.48s2.76-17.42,7.17-22.98c.24-.32.47-.59.75-.91,5.91-6.35,14.15-9.7,22.82-9.82,13.92.32,29.68,10.72,29.68,33.94,0,17.78-10.68,33.66-29.53,34.14-8.52-.08-16.83-3.31-22.82-9.62Z"/>
    <path class="cls-1" d="m397.42,331.08h-12.83c-.84,0-1.52-.68-1.52-1.52v-26.76c0-.84-.68-1.52-1.52-1.52h-12.84c-.84,0-1.52.68-1.52,1.52v26.76c0,.84-.68,1.52-1.52,1.52h-12.83c-.84,0-1.52.68-1.52,1.52v11.51c0,.84.68,1.52,1.52,1.52h12.83c.84,0,1.52.68,1.52,1.52v78.76c0,.84.68,1.52,1.52,1.52h12.84c.84,0,1.52-.68,1.52-1.52v-78.76c0-.84.68-1.52,1.52-1.52h12.83c.84,0,1.52-.68,1.52-1.52v-11.51c0-.84-.68-1.52-1.52-1.52Z"/>
    <path class="cls-1" d="m582.83,333.27h-12.81c-.85,0-1.54.69-1.54,1.54v45.54c0,3.22-.25,6.46-1.12,9.56-4.06,14.45-16.43,21.93-29.39,21.93s-25.44-7.44-29.46-22.11c-.86-3.12-1.09-6.38-1.09-9.61v-45.3c0-.87-.67-1.54-1.5-1.54h-12.85c-.83,0-1.5.67-1.5,1.5v43.04c0,26.2,21.21,48.02,47.4,47.54,26.06-.48,45.4-19.76,45.4-45.99v-44.54c0-.85-.69-1.54-1.54-1.54Z"/>
  </g>
  <path class="cls-1" d="m95.1,0h118.55c3.09,0,5.59,2.5,5.59,5.59v88.3c0,3.09-2.5,5.59-5.59,5.59h-88.07c-13.52,0-24.48,10.96-24.48,24.48v63.02c0,3.09,2.5,5.59,5.59,5.59h94.85c3.09,0,5.59,2.5,5.59,5.59v74.71c0,3.09-2.5,5.59-5.59,5.59h-94.85c-3.09,0-5.59,2.5-5.59,5.59v137.82c0,3.09-2.5,5.59-5.59,5.59H5.59c-3.09,0-5.59-2.5-5.59-5.59V95.1C0,42.58,42.58,0,95.1,0Z"/>
</svg>