<svg width="174" height="60" viewBox="0 0 174 60" fill="none" xmlns="http://www.w3.org/2000/svg">
<path fill-rule="evenodd" clip-rule="evenodd" d="M104.196 58.7171V46.6161H102.222V51.3112C101.629 50.6236 100.76 50.2307 99.8521 50.2307C97.0877 50.2307 96.1201 52.8631 96.1201 55.1025C96.1201 57.342 97.0877 59.9547 99.8718 59.9547C100.859 59.9547 101.767 59.4832 102.399 58.7367C102.735 59.3654 103.367 59.7779 104.078 59.7975H105.124V59.3261H104.907C104.552 59.3654 104.236 59.0903 104.196 58.7367C104.196 58.7367 104.196 58.7367 104.196 58.7171ZM102.024 58.3439C101.688 58.6975 101.234 58.8939 100.741 58.9332C98.2922 58.9332 98.1737 55.6722 98.1737 55.0043C98.1737 54.3364 98.2922 51.0754 100.741 51.0754C101.254 51.1344 101.708 51.3701 102.064 51.7433L102.182 51.8612V57.7545C102.182 57.8527 102.182 57.9706 102.182 58.0688L102.024 58.3439Z" fill="#642175"/>
<path fill-rule="evenodd" clip-rule="evenodd" d="M109.587 50.2307C106.882 49.9557 104.473 51.9201 104.196 54.6114C103.92 57.3027 105.894 59.6993 108.6 59.9743C111.305 60.2493 113.714 58.2849 113.99 55.5936C113.99 55.3972 114.01 55.2007 114.01 55.0043C114.109 52.4702 112.134 50.3486 109.587 50.2307ZM109.587 59.4046C107.81 59.4046 107.415 56.2222 107.415 55.0829C107.415 53.9435 107.81 50.8004 109.587 50.8004C111.364 50.8004 111.798 53.9828 111.798 55.0043C111.798 56.0258 111.403 59.4046 109.587 59.4046Z" fill="#642175"/>
<path fill-rule="evenodd" clip-rule="evenodd" d="M119.539 50.2307C118.453 50.2307 117.465 50.8397 116.952 51.7826C116.715 50.9772 115.984 50.4272 115.135 50.3879H114.109V50.82H114.306C114.661 50.82 114.958 51.1344 114.938 51.488V59.7582H117.031V53.3738V53.1774C117.031 52.2541 117.801 51.488 118.729 51.488C119.657 51.488 120.427 52.2541 120.427 53.1774V59.7779H122.461V53.1774C122.461 51.5665 121.158 50.2504 119.539 50.2307Z" fill="#642175"/>
<path fill-rule="evenodd" clip-rule="evenodd" d="M131.13 58.6778V53.2756C131.09 51.5468 129.649 50.1717 127.891 50.211C127.852 50.211 127.812 50.211 127.773 50.211C125.66 50.211 124.416 50.9968 123.982 52.5487V52.7844H125.956V52.588C125.956 51.3897 126.647 50.8004 127.733 50.8004C128.819 50.8004 129.017 52.0969 129.017 52.7648V54.3363C128.424 53.9631 127.733 53.7863 127.042 53.8256C125.324 53.8256 123.488 54.631 123.488 56.8705C123.488 58.8349 124.831 59.9154 127.121 59.9154C127.951 59.9154 128.76 59.7189 129.471 59.3064C129.807 59.6403 130.281 59.8368 130.754 59.8171H131.801V59.385H131.584C131.288 59.2867 131.09 58.9921 131.13 58.6778ZM129.333 58.9331C128.938 59.1296 128.503 59.2278 128.049 59.2278C126.746 59.2671 125.66 58.2652 125.62 56.9687C125.581 55.7311 126.568 54.6899 127.832 54.6507C127.891 54.6507 127.951 54.6507 128.01 54.6507C128.345 54.6507 128.681 54.7489 128.977 54.9257V57.9509C128.977 58.3045 129.076 58.6581 129.273 58.9528H129.333V58.9331Z" fill="#642175"/>
<path fill-rule="evenodd" clip-rule="evenodd" d="M141.062 59.3064C140.726 59.2868 140.469 59.0118 140.469 58.6778V46.5965H138.357V51.2719C137.784 50.5843 136.915 50.2111 136.027 50.2111C133.242 50.2111 132.334 52.8434 132.334 55.0043C132.334 57.1652 133.321 59.8565 136.086 59.8565C137.073 59.8565 138.001 59.385 138.633 58.6385C138.929 59.2868 139.601 59.6993 140.311 59.6797H141.338V59.2671L141.062 59.3064ZM138.258 58.3046C137.922 58.6974 137.428 58.9528 136.895 58.9921C134.486 58.9332 134.309 55.7508 134.309 55.0043C134.309 54.2578 134.427 51.0754 136.876 51.0754C137.389 51.1344 137.863 51.3897 138.199 51.7826V58.0885L138.258 58.3046Z" fill="#642175"/>
<path fill-rule="evenodd" clip-rule="evenodd" d="M149.789 58.6188V50.3682H147.677V56.9687C147.696 57.8723 146.966 58.6385 146.057 58.6581C146.057 58.6581 146.038 58.6581 146.018 58.6581C145.208 58.6974 144.498 58.0688 144.458 57.2634C144.458 57.1651 144.458 57.0669 144.458 56.9687V52.2541C144.458 51.1736 143.569 50.2896 142.483 50.2896H141.457V50.6825H141.654C142.01 50.7021 142.286 51.0165 142.266 51.3701V56.9687C142.207 58.5206 143.412 59.8564 144.991 59.9154C145.011 59.9154 145.05 59.9154 145.07 59.9154C146.156 59.9154 147.143 59.326 147.657 58.3831C147.874 59.1885 148.624 59.7386 149.454 59.7386H150.5V59.3064H150.283C149.947 59.2475 149.73 58.9528 149.77 58.6188H149.789Z" fill="#642175"/>
<path fill-rule="evenodd" clip-rule="evenodd" d="M159.425 57.7938C159.169 58.6385 158.32 59.1689 157.451 59.0117H154.055L158.734 51.5076C158.892 51.1736 159.208 50.9182 159.564 50.82L159.722 50.7218V50.3682H152.08L151.784 52.4505H152.238V52.3326C152.495 51.4879 153.344 50.9772 154.213 51.1147H156.74L151.428 59.7582H159.682L159.978 57.6956H159.544L159.425 57.7938Z" fill="#642175"/>
<path fill-rule="evenodd" clip-rule="evenodd" d="M168.469 57.7938C168.212 58.6385 167.363 59.1689 166.494 59.0117H163.059L167.738 51.5076C167.896 51.1736 168.212 50.9182 168.568 50.82L168.726 50.7218V50.3682H161.084L160.788 52.4309H161.203V52.313C161.459 51.4683 162.308 50.9379 163.177 51.1147H165.724L160.413 59.7582H168.686L168.963 57.7938H168.469Z" fill="#642175"/>
<path fill-rule="evenodd" clip-rule="evenodd" d="M171.707 49.5431C172.379 49.5431 172.932 49.0127 172.951 48.3448C172.951 47.6769 172.418 47.1269 171.747 47.1072C171.076 47.1072 170.523 47.6376 170.503 48.3055C170.503 48.3055 170.503 48.3252 170.503 48.3448C170.503 49.0127 171.036 49.5431 171.707 49.5431Z" fill="#642175"/>
<path fill-rule="evenodd" clip-rule="evenodd" d="M170.878 50.3682H169.831V50.7807H170.049C170.404 50.8004 170.681 51.095 170.661 51.4486V59.6993H172.635V52.2344C172.635 51.2522 171.865 50.4271 170.878 50.3682Z" fill="#642175"/>
<path fill-rule="evenodd" clip-rule="evenodd" d="M37.3761 3.73245V34.2795C37.3761 41.4104 31.551 47.2055 24.3833 47.2055C17.2155 47.2055 11.3905 41.4104 11.3905 34.2795V3.73245C-0.00288964 10.8634 -3.41893 25.852 3.74883 37.1868C10.9166 48.5216 25.9827 51.9398 37.3761 44.7892C48.7695 37.6387 52.2052 22.6696 45.0177 11.3348C43.0826 8.27031 40.4564 5.6576 37.3761 3.73245Z" fill="#642175"/>
<path fill-rule="evenodd" clip-rule="evenodd" d="M20.5526 22.8661C24.8177 22.8661 28.2733 19.4283 28.2733 15.1851C28.2733 10.9419 24.8177 7.50415 20.5526 7.50415C16.2875 7.50415 12.832 10.9419 12.832 15.1851C12.832 19.4283 16.2875 22.8464 20.5526 22.8464V22.8661Z" fill="#642175"/>
<path fill-rule="evenodd" clip-rule="evenodd" d="M20.5526 35.1242C20.5132 39.3673 23.9292 42.864 28.2141 42.9033C32.4989 42.9426 35.9939 39.5441 36.0334 35.2813C36.0729 31.0381 32.6569 27.5414 28.372 27.5021C28.3523 27.5021 28.3128 27.5021 28.293 27.5021C24.0477 27.5021 20.6119 30.9006 20.5526 35.1242Z" fill="#642175"/>
<path fill-rule="evenodd" clip-rule="evenodd" d="M94.106 26.1663C94.106 18.7604 90.8479 10.1169 81.7253 10.1169C78.5265 10.0972 75.5251 11.5509 73.5505 14.0457C72.504 11.9634 70.3517 10.6473 68.0217 10.6473H65.198L64.5267 10.8241V12.1795H65.198C66.2841 12.1206 67.2319 12.9457 67.2911 14.0261C67.2911 14.0654 67.2911 14.1047 67.2911 14.144V59.7975H74.1627V38.9352C75.9595 41.1943 78.7832 42.4122 81.6661 42.2158C90.8677 42.2158 94.106 33.5526 94.106 26.1663ZM79.0202 39.112C77.3812 39.0727 75.8213 38.3655 74.7156 37.1475L74.3009 36.6957V16.8352C74.2614 16.462 74.2022 16.0888 74.1034 15.7155L74.2811 15.4798C75.4659 14.2422 77.0456 13.4564 78.7437 13.2403C86.7605 13.2403 87.1752 24.0251 87.1752 26.186C87.1752 32.1186 84.9439 39.112 79.0202 39.112Z" fill="#642175"/>
<path fill-rule="evenodd" clip-rule="evenodd" d="M97.759 14.2422V41.7443H104.69V21.0784L104.868 20.0176C105.164 18.5246 106.19 15.0869 109.903 15.0869C110.653 15.0869 111.364 15.3815 111.877 15.9316L112.588 16.8942L114.563 10.4312L113.911 10.2347C113.26 10.0579 112.608 9.97933 111.937 9.99898C108.58 10.0776 105.618 12.2188 104.492 15.3815C103.821 12.651 101.392 10.7062 98.5686 10.6472H95.7054L95.0143 10.824V12.1795H95.7054C96.7914 12.1402 97.7195 12.9849 97.759 14.0654C97.759 14.1243 97.759 14.1832 97.759 14.2422Z" fill="#642175"/>
<path fill-rule="evenodd" clip-rule="evenodd" d="M126.41 22.0803C120.684 22.0803 114.563 24.7323 114.563 32.1382C114.563 38.4441 119.025 42.2158 126.548 42.2158C129.313 42.3336 132.058 41.6461 134.447 40.2513L134.664 40.0549C135.809 41.155 137.349 41.764 138.929 41.764H141.694L142.365 41.6068V40.2317H141.694C140.588 40.1531 139.739 39.2691 139.719 38.169V20.2337C139.719 14.3404 134.921 10.1169 128.622 10.1169C121.652 10.1169 117.564 12.592 116.123 17.7585L115.886 18.5836H122.461V17.9746C122.738 14.0457 124.732 12.0813 128.385 12.0813C131.347 12.0813 132.591 16.3638 132.591 18.6622V23.8679C130.774 22.65 128.602 22.0213 126.41 22.0803ZM133.657 38.8173C132.354 39.4852 130.912 39.8192 129.451 39.7995C125.206 39.9763 121.612 36.7154 121.415 32.4722C121.415 32.3543 121.415 32.2364 121.415 32.1186C121.316 27.9932 124.594 24.5555 128.74 24.4573C128.938 24.4573 129.115 24.4573 129.313 24.4573C130.438 24.4573 131.524 24.7716 132.492 25.3413L132.768 25.4591V35.4778C132.729 36.6564 133.025 37.8154 133.618 38.8173H133.657Z" fill="#642175"/>
<path fill-rule="evenodd" clip-rule="evenodd" d="M169.496 7.85775C171.668 7.85775 173.445 6.08976 173.445 3.92888C173.445 1.76799 171.668 0 169.496 0C167.324 0 165.547 1.76799 165.547 3.92888C165.547 6.08976 167.324 7.85775 169.496 7.85775Z" fill="#642175"/>
<path fill-rule="evenodd" clip-rule="evenodd" d="M141.476 17.1103C142.878 14.1636 144.142 13.1814 147.203 13.1814V34.3973C147.203 38.4048 150.461 41.6461 154.489 41.6658H158.438L159.11 41.5086V40.1335H158.438C156.069 40.1924 154.114 38.3262 154.055 35.9689C154.055 35.9296 154.055 35.91 154.055 35.8707V13.1028H160.788V10.6473H154.055V1.96445H147.203V10.6473H140.766L139.798 17.5032H141.279L141.476 17.1103Z" fill="#642175"/>
<path fill-rule="evenodd" clip-rule="evenodd" d="M166.731 10.6472H163.296V13.0832H164.263C165.27 13.1814 166.04 14.0261 166.04 15.0476V41.6657H172.912V16.8352C172.971 13.476 170.266 10.7062 166.889 10.6472C166.83 10.6472 166.791 10.6472 166.731 10.6472Z" fill="#642175"/>
</svg>
