<svg width="132" height="23" viewBox="0 0 132 23" fill="none" xmlns="http://www.w3.org/2000/svg">
<g opacity="0.5">
<g clip-path="url(#clip0_402_36)">
<path d="M11.3215 2.03788C14.3435 2.03788 14.7006 2.04659 15.8937 2.10755C16.9997 2.1598 17.6006 2.34269 17.9925 2.49945C18.5238 2.70846 18.8983 2.95231 19.2902 3.34421C19.6908 3.74482 19.9346 4.1193 20.1349 4.64183C20.2917 5.04244 20.4746 5.64335 20.5268 6.74067C20.5791 7.93379 20.5965 8.29085 20.5965 11.3128C20.5965 14.3348 20.5878 14.6919 20.5268 15.885C20.4746 16.991 20.2917 17.5919 20.1349 17.9838C19.9259 18.5151 19.6821 18.8896 19.2902 19.2902C18.8983 19.6821 18.5151 19.9346 17.9925 20.1349C17.5919 20.2917 16.991 20.4746 15.8937 20.5268C14.7006 20.5791 14.3435 20.5965 11.3215 20.5965C8.29956 20.5965 7.9425 20.5878 6.74938 20.5268C5.64335 20.4746 5.04244 20.2917 4.65054 20.1349C4.1193 19.9259 3.74482 19.6821 3.34421 19.2902C2.95231 18.8896 2.69975 18.5151 2.49945 17.9838C2.34269 17.5832 2.1598 16.9823 2.10755 15.885C2.05529 14.6919 2.03788 14.3348 2.03788 11.3128C2.03788 8.29085 2.04659 7.93379 2.10755 6.74067C2.1598 5.63464 2.34269 5.03373 2.49945 4.64183C2.70846 4.11059 2.95231 3.73611 3.34421 3.34421C3.74482 2.9436 4.1193 2.69975 4.65054 2.49945C5.05115 2.34269 5.65206 2.1598 6.74938 2.10755C7.9425 2.05529 8.29956 2.03788 11.3215 2.03788ZM11.3215 0C8.24731 0 7.86412 0.0174178 6.65358 0.069671C5.45176 0.121924 4.62441 0.31352 3.90158 0.592204C3.15261 0.879597 2.52557 1.2715 1.89854 1.89854C1.2715 2.52557 0.879597 3.16132 0.592204 3.90158C0.31352 4.62441 0.121924 5.44305 0.069671 6.65358C0.0174178 7.86412 0 8.24731 0 11.3215C0 14.3958 0.00870887 14.779 0.069671 15.9895C0.121924 17.1913 0.31352 18.0187 0.592204 18.7415C0.879597 19.4818 1.2715 20.1175 1.89854 20.7445C2.52557 21.3716 3.16132 21.7635 3.90158 22.0509C4.62441 22.3296 5.44305 22.5212 6.65358 22.5734C7.86412 22.6257 8.24731 22.6431 11.3215 22.6431C14.3958 22.6431 14.779 22.6344 15.9895 22.5734C17.1913 22.5212 18.0187 22.3296 18.7415 22.0509C19.4905 21.7635 20.1175 21.3716 20.7445 20.7445C21.3716 20.1175 21.7635 19.4818 22.0509 18.7415C22.3296 18.0187 22.5212 17.2 22.5734 15.9895C22.6257 14.779 22.6431 14.3958 22.6431 11.3215C22.6431 8.24731 22.6344 7.86412 22.5734 6.65358C22.5212 5.45176 22.3296 4.62441 22.0509 3.90158C21.7635 3.16132 21.3716 2.52557 20.7445 1.89854C20.1175 1.2715 19.4818 0.879597 18.7415 0.592204C18.0187 0.31352 17.2 0.121924 15.9895 0.069671C14.779 0.0174178 14.3958 0 11.3215 0Z" fill="black"/>
<path d="M11.3215 5.51273C8.10796 5.51273 5.50401 8.11668 5.50401 11.3303C5.50401 14.5438 8.10796 17.1478 11.3215 17.1478C14.5351 17.1478 17.1391 14.5438 17.1391 11.3303C17.1391 8.11668 14.5351 5.51273 11.3215 5.51273ZM11.3215 15.1012C9.24012 15.1012 7.5506 13.4117 7.5506 11.3303C7.5506 9.24883 9.24012 7.55931 11.3215 7.55931C13.403 7.55931 15.0925 9.24883 15.0925 11.3303C15.0925 13.4117 13.403 15.1012 11.3215 15.1012Z" fill="black"/>
<path d="M18.7241 5.27759C18.7241 6.02655 18.1145 6.63618 17.3655 6.63618C16.6165 6.63618 16.0069 6.02655 16.0069 5.27759C16.0069 4.52863 16.6165 3.91901 17.3655 3.91901C18.1145 3.91901 18.7241 4.52863 18.7241 5.27759Z" fill="black"/>
</g>
<g clip-path="url(#clip1_402_36)">
<path d="M54.9376 7.55087H50.2623V22.6431H54.9376V7.55087Z" fill="black"/>
<path d="M52.5761 5.57031C54.0996 5.57031 55.3375 4.32294 55.3375 2.78039C55.3375 1.23785 54.1091 0 52.5761 0C51.0431 0 49.8148 1.24737 49.8148 2.78992C49.8148 4.33246 51.0526 5.57983 52.5761 5.57983V5.57031Z" fill="black"/>
<path d="M62.4027 14.7209C62.4027 12.5975 63.3835 11.3311 65.2498 11.3311C66.9637 11.3311 67.7921 12.5403 67.7921 14.7209V22.6431H72.4388V13.0831C72.4388 9.03628 70.144 7.08429 66.9447 7.08429C63.7453 7.08429 62.3932 9.57903 62.3932 9.57903V7.54134H57.9084V22.6336H62.3932V14.7113L62.4027 14.7209Z" fill="black"/>
</g>
<g clip-path="url(#clip2_402_36)">
<path d="M131.322 3.53957C130.95 2.15084 129.866 1.05002 128.477 0.677429C125.971 0 115.919 0 115.919 0C115.919 0 105.868 0 103.361 0.677429C101.981 1.05002 100.889 2.14237 100.516 3.53957C99.8473 6.06299 99.8473 11.33 99.8473 11.33C99.8473 11.33 99.8473 16.597 100.516 19.1204C100.889 20.5092 101.973 21.61 103.361 21.9826C105.868 22.66 115.919 22.66 115.919 22.66C115.919 22.66 125.971 22.66 128.477 21.9826C129.857 21.61 130.95 20.5176 131.322 19.1204C131.991 16.597 131.991 11.33 131.991 11.33C131.991 11.33 131.991 6.06299 131.322 3.53957Z" fill="black"/>
<path d="M112.642 16.0974V6.54565L121.043 11.3215L112.642 16.0974Z" fill="white"/>
</g>
</g>
<defs>
<clipPath id="clip0_402_36">
<rect width="22.6431" height="22.6431" fill="white"/>
</clipPath>
<clipPath id="clip1_402_36">
<rect width="22.6336" height="22.6431" fill="white" transform="translate(49.8148)"/>
</clipPath>
<clipPath id="clip2_402_36">
<rect width="32.144" height="22.6431" fill="white" transform="translate(99.856)"/>
</clipPath>
</defs>
</svg>
